<?xml version="1.0" standalone="no"?>
<!DOCTYPE svg PUBLIC "-//W3C//DTD SVG 20010904//EN"
 "http://www.w3.org/TR/2001/REC-SVG-20010904/DTD/svg10.dtd">
<svg version="1.0" xmlns="http://www.w3.org/2000/svg"
 width="840.000000pt" height="859.000000pt" viewBox="0 0 840.000000 859.000000"
 preserveAspectRatio="xMidYMid meet">

<g transform="translate(0.000000,859.000000) scale(0.100000,-0.100000)"
fill="#000000" stroke="none">
<path d="M3620 6560 c-234 -29 -292 -52 -389 -155 -126 -135 -193 -325 -282
-800 l-32 -169 29 -20 c16 -12 58 -50 94 -86 270 -269 280 -872 20 -1162 l-52
-58 1211 0 1211 0 -54 83 c-137 210 -196 386 -196 582 0 234 96 440 272 582
55 44 68 61 64 77 -2 12 -21 109 -41 216 -57 307 -98 456 -165 596 -72 150
-160 237 -279 274 -150 47 -225 53 -761 56 -439 2 -524 0 -650 -16z"/>
<path d="M2392 5440 c-143 -38 -273 -119 -368 -230 -64 -75 -79 -98 -108 -172
-84 -212 -8 -462 174 -578 219 -139 499 -17 581 252 18 57 20 87 17 171 -3 56
-9 111 -13 122 -16 37 57 -28 89 -79 24 -38 30 -61 34 -124 8 -144 -46 -285
-157 -404 -98 -106 -166 -146 -294 -173 l-27 -5 2 -468 3 -467 288 -3 287 -2
0 383 0 384 74 96 c82 107 154 239 184 338 65 212 44 460 -56 654 -46 89 -163
208 -249 253 -134 70 -313 91 -461 52z"/>
<path d="M5736 5444 c-225 -50 -396 -223 -468 -471 -19 -66 -23 -101 -22 -223
0 -250 66 -431 223 -617 l61 -73 2 -387 3 -388 290 0 290 0 3 466 2 467 -68
17 c-170 41 -316 185 -389 383 -35 92 -36 216 -4 283 21 45 76 107 86 98 2 -3
-1 -33 -7 -68 -16 -83 1 -202 40 -285 139 -293 505 -328 681 -65 80 120 105
291 61 430 -41 133 -173 291 -305 364 -134 74 -330 103 -479 69z"/>
<path d="M2970 3880 l0 -180 1250 0 1250 0 0 180 0 180 -1250 0 -1250 0 0
-180z"/>
<path d="M2972 3463 l3 -178 1248 -3 1247 -2 0 180 0 180 -1250 0 -1250 0 2
-177z"/>
<path d="M3073 3093 c-24 -9 -14 -42 17 -58 39 -20 39 -49 0 -85 -38 -35 -22
-49 23 -21 60 37 74 105 32 146 -23 24 -45 29 -72 18z"/>
<path d="M6310 3022 c0 -22 -3 -54 -6 -71 -10 -47 17 -40 41 12 l20 42 68 3
67 3 0 -215 c0 -118 -3 -221 -6 -230 -3 -8 -21 -18 -40 -22 -69 -13 -31 -24
81 -24 70 0 115 4 115 10 0 6 -11 10 -24 10 -53 0 -56 13 -56 251 l0 220 68
-3 67 -3 20 -42 c29 -63 42 -55 37 25 -2 37 -6 69 -8 71 -2 2 -16 -2 -32 -8
-32 -13 -351 -11 -389 3 -21 8 -23 6 -23 -32z"/>
<path d="M683 3035 c-57 -24 -121 -92 -143 -151 -84 -226 103 -430 336 -365
58 16 127 79 154 143 29 68 32 165 7 230 -20 52 -89 121 -142 144 -44 18 -170
18 -212 -1z m177 -30 c68 -35 102 -104 108 -216 8 -167 -49 -251 -171 -251
-71 1 -123 38 -161 116 -54 106 -37 267 34 331 47 42 129 51 190 20z"/>
<path d="M2094 3013 c-163 -414 -178 -448 -211 -463 -18 -8 -33 -18 -33 -22 0
-5 41 -8 90 -8 94 0 111 8 60 27 -36 14 -38 31 -9 107 l22 56 87 0 88 0 25
-74 c26 -77 23 -96 -15 -96 -10 0 -18 -4 -18 -10 0 -6 40 -10 100 -10 95 0
129 11 75 24 -14 4 -31 16 -39 29 -8 12 -51 124 -97 250 -54 150 -87 227 -96
227 -8 0 -21 -17 -29 -37z m45 -166 c17 -49 31 -93 31 -98 0 -5 -31 -9 -70 -9
-38 0 -70 4 -70 9 0 11 57 168 66 183 8 13 8 13 43 -85z"/>
<path d="M3311 3032 c-39 -21 -71 -73 -71 -115 0 -67 41 -114 149 -173 82 -44
109 -101 76 -163 -19 -38 -66 -54 -116 -41 -40 11 -68 39 -89 90 -7 17 -17 29
-22 28 -11 -4 -12 -8 -3 -75 6 -52 7 -53 48 -64 114 -31 210 -1 248 78 41 85
6 156 -108 216 -86 45 -115 75 -116 120 -1 48 25 85 67 92 49 10 87 -12 111
-62 11 -23 25 -41 30 -39 14 4 6 109 -9 118 -24 16 -160 9 -195 -10z"/>
<path d="M3988 3043 c-157 -3 -207 -13 -139 -26 18 -4 31 -14 35 -29 8 -30 8
-386 0 -416 -4 -15 -17 -25 -35 -29 -62 -12 -24 -23 81 -23 67 0 110 4 110 10
0 6 -11 10 -24 10 -47 0 -56 22 -56 132 l0 101 38 -7 c20 -3 54 -6 75 -6 34 0
40 -4 50 -30 6 -16 17 -30 24 -30 10 0 13 22 13 80 0 58 -3 80 -13 80 -7 0
-18 -13 -24 -30 -11 -30 -12 -30 -87 -30 l-76 0 0 105 0 105 78 0 c85 0 100
-8 121 -63 18 -48 32 -31 29 35 -2 48 -7 63 -18 63 -8 0 -90 -1 -182 -2z"/>
<path d="M8125 3040 c-108 -3 -172 -8 -160 -13 52 -22 50 -10 53 -243 2 -197
1 -220 -15 -231 -9 -7 -27 -13 -40 -13 -13 0 -23 -4 -23 -10 0 -6 73 -10 200
-10 l199 0 10 38 c24 89 24 92 8 92 -9 0 -19 -9 -22 -20 -4 -11 -18 -34 -32
-50 -24 -29 -28 -30 -109 -30 -81 0 -85 1 -94 26 -6 14 -10 63 -10 110 l0 84
70 0 c68 0 72 -1 88 -30 9 -16 20 -30 25 -30 4 0 7 36 7 80 0 83 -11 102 -29
50 -10 -30 -11 -30 -86 -30 l-76 0 3 98 3 97 72 3 c86 3 107 -6 123 -53 6 -19
18 -35 26 -35 11 0 13 11 8 58 -4 31 -9 59 -13 62 -3 3 -87 3 -186 0z"/>
<path d="M50 3032 c0 -4 15 -12 33 -17 l32 -10 3 -220 c2 -198 1 -221 -15
-232 -9 -7 -27 -13 -40 -13 -13 0 -23 -5 -23 -10 0 -7 66 -9 192 -8 l192 3 13
44 c7 24 15 52 18 62 10 31 -23 22 -40 -11 -29 -57 -53 -70 -124 -70 -36 0
-71 4 -78 8 -8 5 -13 69 -15 218 -3 227 0 244 48 244 13 0 24 5 24 10 0 6 -43
10 -110 10 -60 0 -110 -4 -110 -8z"/>
<path d="M1150 3030 c0 -5 11 -10 24 -10 28 0 56 -24 56 -48 0 -9 -7 -102 -15
-207 -13 -173 -16 -192 -36 -207 -12 -10 -27 -18 -35 -18 -8 0 -14 -4 -14 -10
0 -6 38 -10 95 -10 57 0 95 4 95 10 0 6 -8 10 -18 10 -10 0 -27 6 -37 14 -17
12 -19 26 -17 147 3 173 11 248 25 224 5 -10 45 -104 87 -209 50 -122 84 -192
94 -194 9 -2 16 1 16 7 0 10 178 411 186 420 2 2 4 -85 4 -193 l0 -198 -30
-11 c-16 -6 -30 -15 -30 -19 0 -4 47 -8 105 -8 107 0 131 8 73 25 -43 13 -47
36 -47 267 -1 172 0 177 21 192 12 9 30 16 40 16 10 0 18 5 18 10 0 6 -31 10
-73 10 l-74 0 -93 -200 c-51 -110 -95 -198 -99 -196 -3 2 -44 92 -91 200 l-85
196 -72 0 c-42 0 -73 -4 -73 -10z"/>
<path d="M2410 3032 c0 -4 15 -12 32 -17 55 -16 59 -38 55 -245 -2 -102 -8
-193 -12 -203 -4 -10 -20 -21 -36 -24 -60 -12 -25 -23 71 -23 104 0 127 10 63
26 -34 8 -38 13 -45 49 -10 58 -10 327 1 323 4 -1 82 -93 173 -203 90 -110
172 -201 181 -203 16 -3 17 15 17 228 0 132 4 239 10 250 5 10 24 24 42 31
l33 13 -58 4 c-86 5 -167 -2 -142 -11 70 -28 70 -27 76 -120 3 -48 3 -126 0
-174 l-6 -86 -165 196 -165 196 -62 1 c-35 0 -63 -4 -63 -8z"/>
<path d="M4270 3032 c0 -4 15 -12 33 -17 l32 -10 5 -180 c5 -167 7 -183 30
-225 36 -64 86 -90 176 -90 90 0 148 27 178 85 17 34 22 68 29 220 9 189 13
205 59 205 10 0 18 5 18 10 0 6 -40 10 -101 10 -96 0 -123 -11 -59 -23 45 -10
52 -40 48 -212 -3 -170 -15 -205 -78 -238 -44 -23 -121 -18 -158 10 -56 41
-66 76 -70 225 -5 178 0 207 39 215 61 12 25 23 -76 23 -58 0 -105 -4 -105 -8z"/>
<path d="M4875 3030 c3 -5 15 -10 25 -10 43 0 50 -32 50 -235 0 -104 -3 -200
-6 -212 -4 -14 -17 -24 -35 -28 -60 -13 -25 -25 76 -25 107 0 131 8 73 25
l-33 10 -3 98 -3 97 29 0 c39 0 52 -12 114 -110 30 -47 67 -93 81 -103 28 -18
117 -35 117 -22 0 4 -20 25 -43 46 -41 35 -147 184 -147 205 0 5 13 16 29 26
16 9 37 28 47 43 23 36 23 112 0 147 -32 48 -69 58 -231 58 -95 0 -144 -4
-140 -10z m238 -21 c48 -13 77 -57 77 -117 0 -34 -6 -49 -32 -77 -27 -29 -42
-37 -85 -42 l-53 -6 0 121 c0 106 2 121 18 125 28 8 35 7 75 -4z"/>
<path d="M5370 3030 c0 -5 8 -10 19 -10 10 0 30 -9 45 -21 l26 -20 0 -200 c0
-186 -1 -200 -20 -219 -11 -11 -29 -20 -40 -20 -11 0 -20 -4 -20 -10 0 -6 40
-10 100 -10 97 0 131 11 71 23 -47 10 -52 31 -49 214 l3 168 169 -208 c106
-129 177 -207 188 -207 16 0 18 17 20 248 l3 247 33 10 c57 16 34 25 -68 25
-60 0 -100 -4 -100 -10 0 -5 10 -10 23 -10 13 0 32 -6 43 -14 17 -13 19 -30
22 -193 3 -153 1 -176 -11 -163 -8 8 -85 99 -172 203 l-157 187 -64 0 c-36 0
-64 -4 -64 -10z"/>
<path d="M6015 3030 c3 -5 13 -10 21 -10 8 0 23 -9 34 -20 19 -19 20 -33 20
-220 0 -187 -1 -201 -20 -220 -11 -11 -29 -20 -40 -20 -11 0 -20 -4 -20 -10 0
-6 43 -10 110 -10 112 0 136 8 78 25 l-33 10 0 225 0 225 33 10 c58 17 34 25
-79 25 -71 0 -108 -4 -104 -10z"/>
<path d="M6830 3032 c0 -4 15 -12 33 -17 l32 -10 6 -176 c5 -160 8 -180 30
-225 33 -67 86 -94 184 -94 92 0 139 26 174 94 23 44 25 61 29 218 5 178 10
198 53 198 10 0 19 5 19 10 0 6 -38 10 -95 10 -57 0 -95 -4 -95 -10 0 -5 9
-10 20 -10 11 0 29 -9 41 -21 20 -20 21 -29 17 -182 -3 -183 -14 -217 -78
-250 -44 -23 -120 -18 -158 10 -53 38 -63 77 -65 251 -2 167 4 192 44 192 10
0 21 5 24 10 4 6 -33 10 -104 10 -61 0 -111 -4 -111 -8z"/>
<path d="M7440 3030 c0 -5 9 -10 19 -10 47 0 51 -18 51 -240 0 -222 -4 -240
-51 -240 -10 0 -19 -4 -19 -10 0 -6 42 -10 105 -10 63 0 105 4 105 10 0 6 -9
10 -19 10 -40 0 -51 26 -51 121 0 87 0 89 24 89 44 0 56 -11 118 -107 50 -77
70 -99 102 -114 40 -18 96 -25 96 -12 0 3 -18 21 -40 40 -37 32 -150 189 -150
209 0 5 13 16 29 26 90 51 90 186 1 230 -28 15 -62 18 -177 18 -89 0 -143 -4
-143 -10z m232 -20 c50 -14 78 -52 78 -106 0 -83 -35 -121 -120 -131 l-50 -6
0 116 c0 100 2 117 18 126 22 13 29 13 74 1z"/>
<path d="M1417 2273 c-11 -11 -8 -253 3 -253 6 0 10 25 10 55 l0 55 70 0 c40
0 70 4 70 10 0 6 -30 10 -71 10 l-70 0 3 53 3 52 73 3 c43 2 70 7 67 12 -7 11
-148 14 -158 3z"/>
<path d="M1712 2267 c-14 -16 -112 -226 -112 -238 0 -22 22 -6 36 26 l14 35
70 0 70 0 17 -35 c25 -53 47 -46 24 8 -42 96 -100 217 -104 217 -3 0 -9 -6
-15 -13z m41 -93 c16 -31 26 -58 24 -61 -3 -2 -29 -3 -59 -1 l-55 3 25 58 c13
31 28 57 31 57 4 0 19 -25 34 -56z"/>
<path d="M2128 2244 c-14 -22 -39 -65 -57 -97 -18 -31 -37 -55 -41 -52 -5 3
-31 44 -57 90 -26 47 -54 85 -60 85 -10 0 -13 -32 -13 -125 0 -77 4 -125 10
-125 6 0 10 38 10 95 0 52 3 95 8 95 4 0 27 -36 52 -80 25 -44 48 -80 52 -80
4 0 29 36 55 80 l48 81 3 -96 c1 -52 6 -95 11 -95 11 0 22 243 11 254 -5 5
-19 -8 -32 -30z"/>
<path d="M2260 2151 c0 -81 4 -131 10 -131 6 0 10 48 10 124 0 73 -4 127 -10
131 -6 4 -10 -40 -10 -124z"/>
<path d="M2380 2151 l0 -131 86 0 c54 0 83 4 79 10 -3 6 -37 10 -76 10 l-69 0
0 114 c0 66 -4 117 -10 121 -6 4 -10 -40 -10 -124z"/>
<path d="M2537 2273 c-3 -5 17 -44 44 -88 39 -62 49 -88 49 -122 0 -32 4 -43
15 -43 11 0 15 12 15 45 0 35 10 60 46 120 61 101 50 121 -13 22 l-50 -78 -43
70 c-44 74 -55 87 -63 74z"/>
<path d="M2963 2266 c-67 -30 -94 -127 -54 -192 28 -45 98 -71 151 -55 78 23
118 108 84 177 -35 70 -114 100 -181 70z m101 -20 c45 -19 66 -52 66 -104 0
-67 -50 -110 -120 -103 -92 10 -130 119 -64 184 22 22 35 28 77 36 4 0 23 -5
41 -13z"/>
<path d="M3362 2259 c-5 -13 -21 -60 -37 -104 -15 -44 -31 -83 -34 -88 -4 -4
-22 40 -41 98 -22 67 -39 105 -48 105 -7 0 -11 -6 -9 -12 3 -7 23 -64 44 -126
26 -78 42 -112 52 -110 7 2 29 47 48 100 20 54 39 96 43 93 5 -3 23 -48 40
-100 19 -56 37 -95 45 -95 12 0 34 52 80 190 18 54 18 63 4 58 -5 -2 -26 -48
-45 -102 -18 -55 -36 -101 -38 -103 -2 -2 -18 40 -36 94 -38 114 -55 139 -68
102z"/>
<path d="M3627 2273 c-4 -3 -7 -62 -7 -130 0 -101 3 -123 15 -123 11 0 15 20
17 99 l3 99 78 -99 c43 -54 85 -99 93 -99 12 0 14 21 12 125 -4 155 -21 171
-28 26 l-5 -104 -83 107 c-46 58 -84 106 -86 106 -1 0 -6 -3 -9 -7z"/>
<path d="M3930 2150 l0 -130 90 0 c53 0 90 4 90 10 0 6 -33 10 -80 10 l-80 0
0 50 0 50 70 0 c40 0 70 4 70 10 0 6 -30 10 -71 10 l-70 0 3 48 3 47 73 -3
c61 -3 72 -1 72 12 0 13 -14 16 -85 16 l-85 0 0 -130z"/>
<path d="M4188 2274 c-5 -4 -8 -63 -8 -131 l0 -123 75 0 c48 0 87 6 105 15 81
42 79 179 -3 221 -34 18 -157 31 -169 18z m160 -38 c30 -15 52 -53 52 -87 0
-34 -29 -86 -56 -98 -34 -15 -131 -14 -136 2 -7 17 -1 174 6 194 5 13 16 15
56 10 27 -3 62 -13 78 -21z"/>
<path d="M4633 2270 c-30 -12 -39 -54 -19 -84 15 -24 14 -26 -14 -55 -34 -33
-37 -56 -15 -88 22 -31 75 -39 119 -18 34 17 38 17 55 1 14 -13 21 -14 26 -5
5 7 1 16 -9 21 -14 8 -16 18 -11 49 7 42 -8 56 -18 17 -6 -22 -7 -22 -41 11
l-35 34 24 23 c35 32 34 81 -1 94 -30 12 -32 12 -61 0z m51 -16 c24 -9 19 -50
-8 -67 -19 -13 -26 -13 -34 -4 -19 24 -21 47 -6 62 17 17 25 18 48 9z m3 -146
c41 -40 42 -55 1 -66 -45 -12 -97 9 -98 39 0 12 42 59 53 59 6 0 26 -14 44
-32z"/>
<path d="M5004 2266 c-96 -42 -107 -167 -21 -230 36 -27 111 -27 150 -1 83 54
73 186 -16 228 -42 20 -71 21 -113 3z m101 -22 c66 -31 83 -125 31 -173 -74
-70 -186 -26 -186 73 0 49 21 83 64 102 40 17 51 17 91 -2z"/>
<path d="M5267 2273 c-11 -10 -8 -253 2 -253 6 0 11 17 13 38 3 36 4 37 48 40
94 5 130 28 130 85 0 44 -23 74 -68 87 -42 11 -115 13 -125 3z m146 -35 c9 -7
19 -25 22 -40 5 -21 1 -33 -19 -52 -21 -22 -34 -26 -81 -26 l-55 0 0 65 0 65
58 0 c32 0 66 -6 75 -12z"/>
<path d="M5537 2273 c-4 -3 -7 -62 -7 -130 l0 -123 91 0 c57 0 88 4 84 10 -3
6 -40 10 -81 10 l-74 0 0 50 0 50 70 0 c40 0 70 4 70 10 0 6 -30 10 -71 10
l-70 0 3 48 3 47 73 -3 c60 -3 72 -1 72 12 0 13 -14 16 -78 16 -43 0 -82 -3
-85 -7z"/>
<path d="M5787 2273 c-11 -10 -8 -253 2 -253 6 0 11 17 13 38 3 37 4 37 50 40
45 3 48 1 74 -37 15 -23 33 -41 41 -41 15 0 12 7 -21 52 l-19 27 26 27 c50 50
29 124 -41 144 -42 11 -115 13 -125 3z m116 -24 c44 -12 62 -44 47 -83 -12
-34 -39 -46 -99 -46 l-51 0 0 64 c0 79 17 89 103 65z"/>
<path d="M6106 2228 c-13 -29 -40 -88 -59 -130 -23 -51 -31 -78 -23 -78 7 0
20 16 29 35 l17 35 70 0 71 0 15 -35 c8 -19 21 -35 28 -35 16 0 -96 252 -114
258 -6 2 -21 -20 -34 -50z m68 -60 l26 -58 -61 0 c-33 0 -59 4 -57 8 27 67 54
119 60 114 4 -4 18 -33 32 -64z"/>
<path d="M6266 2271 c-4 -6 13 -11 41 -13 l48 -3 3 -117 c4 -158 22 -155 22 3
l0 121 40 -3 c22 -2 40 1 40 6 0 13 -187 19 -194 6z"/>
<path d="M6527 2273 c-4 -3 -7 -62 -7 -130 l0 -123 90 0 c53 0 90 4 90 10 0 6
-34 10 -81 10 l-80 0 3 48 3 47 68 3 c89 4 87 22 -3 22 l-70 0 0 45 0 45 43 0
c60 0 118 11 111 21 -6 10 -157 12 -167 2z"/>
<path d="M6777 2273 c-4 -3 -7 -62 -7 -130 l0 -123 75 0 c121 0 165 34 165
126 0 91 -57 134 -176 134 -28 0 -54 -3 -57 -7z m125 -23 c39 0 88 -53 88 -95
0 -79 -43 -115 -135 -115 l-55 0 0 111 0 112 38 -7 c20 -3 49 -6 64 -6z"/>
</g>
</svg>
