<?xml version="1.0" standalone="no"?>
<!DOCTYPE svg PUBLIC "-//W3C//DTD SVG 20010904//EN"
 "http://www.w3.org/TR/2001/REC-SVG-20010904/DTD/svg10.dtd">
<svg version="1.0" xmlns="http://www.w3.org/2000/svg"
 width="840.000000pt" height="859.000000pt" viewBox="0 0 840.000000 859.000000"
 preserveAspectRatio="xMidYMid meet">

<g transform="translate(0.000000,859.000000) scale(0.100000,-0.100000)"
fill="#000000" stroke="none">
<path d="M253 7662 c-217 -76 -282 -344 -124 -515 23 -25 65 -55 94 -68 51
-24 56 -24 485 -29 l434 -5 118 -315 c65 -173 223 -592 350 -930 128 -338 380
-1006 560 -1485 181 -478 396 -1050 479 -1269 83 -220 151 -402 151 -405 0 -4
-34 -29 -76 -56 -144 -94 -282 -264 -347 -426 -177 -444 18 -953 446 -1164
337 -166 727 -108 1004 149 85 78 147 163 199 271 100 206 118 410 58 668 l-6
27 922 0 c874 0 922 -1 915 -18 -22 -56 -38 -170 -38 -277 0 -153 26 -264 92
-400 233 -476 798 -653 1259 -393 104 58 259 213 325 324 155 262 169 612 36
877 -125 248 -327 411 -607 490 l-77 22 -1739 5 -1740 5 -77 205 c-43 113 -78
211 -79 218 0 9 407 12 2004 12 2198 0 2040 -4 2129 60 78 56 97 99 207 460
56 184 205 668 330 1075 390 1265 432 1406 437 1445 3 21 0 62 -7 92 -23 101
-85 178 -175 220 l-50 23 -3079 5 -3080 5 -83 220 c-217 574 -255 673 -273
712 -27 60 -85 120 -144 151 l-51 27 -565 2 c-523 3 -569 1 -617 -15z m3701
-1824 c8 -115 32 -425 51 -660 8 -97 15 -181 15 -187 0 -8 -214 -11 -719 -11
l-719 0 -40 108 c-22 59 -102 269 -176 466 -75 198 -136 363 -136 368 0 4 386
8 859 8 l858 0 7 -92z m1776 67 c0 -28 -56 -767 -65 -862 l-7 -63 -663 0 -663
0 -6 63 c-9 83 -66 844 -66 868 0 18 24 19 735 19 l735 0 0 -25z m1893 -52
c-13 -43 -46 -148 -72 -233 -26 -85 -81 -264 -121 -397 l-75 -243 -693 0 -693
0 5 43 c3 23 20 227 36 452 17 226 33 420 36 433 l4 22 799 0 799 0 -25 -77z
m-3546 -1613 c18 -228 30 -421 28 -428 -4 -10 -117 -12 -542 -10 l-537 3 -33
85 c-168 445 -283 754 -283 762 0 4 299 7 668 6 l667 -3 32 -415z m1550 323
c-4 -54 -18 -242 -32 -418 -14 -176 -25 -326 -25 -332 0 -16 -1135 -19 -1145
-3 -6 10 -65 745 -65 813 l0 37 637 0 636 0 -6 -97z m1620 75 c-3 -17 -151
-502 -246 -808 l-8 -25 -548 -3 c-302 -1 -552 1 -556 5 -5 5 -2 91 6 193 8
102 22 277 30 390 9 113 18 220 21 238 l5 32 651 0 650 0 -5 -22z m-3949
-2543 c73 -22 154 -99 182 -173 52 -137 -6 -293 -134 -360 -43 -22 -64 -27
-131 -27 -70 0 -87 4 -134 30 -161 89 -200 302 -80 439 43 49 78 71 144 92 54
17 92 17 153 -1z m3594 -13 c65 -29 104 -66 137 -134 58 -116 37 -243 -54
-335 -63 -63 -135 -88 -225 -80 -72 6 -125 33 -179 92 -72 79 -96 170 -67 267
50 172 230 260 388 190z"/>
</g>
</svg>
